# xmcd
#
# Track frame offsets:
#	150
#	18757
#	40706
#	86930
#	110117
#	142424
#	162324
#
# Disc length: 2572 seconds
#
# Revision: 1
# Processed by: cddbd v1.5.2PL0 Copyright (c) Steve Scherf et al.
# Submitted via: audiograbber 1.83.01
#
DISCID=5e0a0a07
DTITLE=Grateful Dead - 73-05-20 Campus Stadium, Santa Barbara CA
DYEAR=1900
DGENRE=
TTITLE0=Big Railroad Blues
TTITLE1=Greatest Story Ever Told
TTITLE2=Here Comes Sunshine
TTITLE3=Big River
TTITLE4=Loser
TTITLE5=El Paso
TTITLE6=Casey Jones
EXTD=
EXTT0=
EXTT1=
EXTT2=
EXTT3=
EXTT4=
EXTT5=
EXTT6=
PLAYORDER=
